# xmcd
#
# Track frame offsets: 
#        150
#        16489
#        30246
#        46634
#        66985
#        89414
#        107791
#        124731
#        142899
#        167300
#        191439
#
# Disc length: 2789 seconds
#
# Revision: 1
# Processed by: cddbd v1.5.2PL0 Copyright (c) Steve Scherf et al.
# Submitted via: ExactAudioCopyFreeDBPlugin 1.0
#
DISCID=820ae30b
DTITLE=夏韶聲 - 諳5
DYEAR=2015
DGENRE=Blues
TTITLE0=Only You
TTITLE1=舊枕頭
TTITLE2=我和春天有個約會
TTITLE3=感謝夏日 - 風
TTITLE4=聽不到的說話
TTITLE5=味道
TTITLE6=再見也許不再會
TTITLE7=別人的歌
TTITLE8=請給她再醉
TTITLE9=今天昨天
TTITLE10=飄雪
EXTD=
EXTT0=
EXTT1=
EXTT2=
EXTT3=
EXTT4=
EXTT5=
EXTT6=
EXTT7=
EXTT8=
EXTT9=
EXTT10=
PLAYORDER=
